<?xml version="1.0" encoding="UTF-8" standalone="no"?>
<svg
   xmlns:dc="http://purl.org/dc/elements/1.1/"
   xmlns:cc="http://creativecommons.org/ns#"
   xmlns:rdf="http://www.w3.org/1999/02/22-rdf-syntax-ns#"
   xmlns:svg="http://www.w3.org/2000/svg"
   xmlns="http://www.w3.org/2000/svg"
   xmlns:sodipodi="http://sodipodi.sourceforge.net/DTD/sodipodi-0.dtd"
   xmlns:inkscape="http://www.inkscape.org/namespaces/inkscape"
   version="1.0"
   width="261.000000pt"
   height="251.000000pt"
   viewBox="0 0 261.000000 251.000000"
   preserveAspectRatio="xMidYMid meet"
   id="svg10"
   sodipodi:docname="infoV2.svg"
   inkscape:version="1.0.2 (e86c870879, 2021-01-15)">
  <metadata
     id="metadata16">
    <rdf:RDF>
      <cc:Work
         rdf:about="">
        <dc:format>image/svg+xml</dc:format>
        <dc:type
           rdf:resource="http://purl.org/dc/dcmitype/StillImage" />
        <dc:title></dc:title>
      </cc:Work>
    </rdf:RDF>
  </metadata>
  <defs
     id="defs14" />
  <sodipodi:namedview
     pagecolor="#ffffff"
     bordercolor="#666666"
     borderopacity="1"
     objecttolerance="10"
     gridtolerance="10"
     guidetolerance="10"
     inkscape:pageopacity="0"
     inkscape:pageshadow="2"
     inkscape:window-width="1920"
     inkscape:window-height="1050"
     id="namedview12"
     showgrid="false"
     inkscape:zoom="1.7121514"
     inkscape:cx="20.100058"
     inkscape:cy="167.33333"
     inkscape:window-x="1366"
     inkscape:window-y="0"
     inkscape:window-maximized="0"
     inkscape:current-layer="svg10" />
  <g
     transform="translate(0.000000,251.000000) scale(0.100000,-0.100000)"
     fill="#000000"
     stroke="none"
     id="g8"
     style="fill:#757673;fill-opacity:1">
    <path
       d="M1245 2474 c-445 -29 -836 -287 -1025 -679 -90 -186 -124 -330 -124 -530 0 -150 14 -242 56 -375 171 -539 708 -897 1263 -840 299 30 543 145 751 354 242 242 357 520 357 856 -1 195 -37 357 -118 525 -123 254 -317 449 -571 571 -181 87 -395 130 -589 118z m210 -238 c404 -61 717 -351 817 -756 30 -122 30 -321 0 -443 -29 -116 -73 -221 -131 -310 -278 -425 -826 -575 -1276 -350 -105 53 -182 111 -275 210 -284 299 -349 747 -162 1118 109 218 304 393 534 479 163 62 322 78 493 52z"
       id="path2"
       style="fill:#757673;fill-opacity:1" />
    <path
       d="M1250 1925 c-52 -16 -107 -65 -126 -112 -19 -45 -17 -120 5 -168 62 -138 256 -153 345 -27 77 109 21 269 -107 307 -60 18 -59 18 -117 0z"
       id="path4"
       style="fill:#757673;fill-opacity:1" />
    <path
       d="M1052 1398 c-7 -7 -12 -45 -12 -99 0 -100 6 -109 75 -117 l45 -5 0 -158 0 -159 -43 0 c-67 0 -78 -19 -75 -121 4 -114 -6 -110 281 -107 270 3 257 -2 257 118 0 91 -13 110 -78 110 l-42 0 0 263 c0 191 -3 266 -12 275 -8 8 -67 12 -198 12 -131 0 -190 -4 -198 -12z"
       id="path6"
       style="fill:#757673;fill-opacity:1" />
  </g>
</svg>
